<?xml version="1.0" encoding="utf-8"?>
<!-- Generator: Adobe Illustrator 26.0.1, SVG Export Plug-In . SVG Version: 6.00 Build 0)  -->
<svg version="1.1" id="Layer_1" xmlns="http://www.w3.org/2000/svg" xmlns:xlink="http://www.w3.org/1999/xlink" x="0px" y="0px"
	 viewBox="0 0 391 395" style="enable-background:new 0 0 391 395;" xml:space="preserve">
<style type="text/css">
	.st0{fill:#1EE3FF;}
	.st1{fill:#F49693;}
	.st2{fill:#D22CFF;}
</style>
<path class="st0" d="M300,189.5c15.7,3.2,30,9.5,42.4,19.7c21.5,17.8,33.6,40.6,35.5,68.6c3.3,47.8-29.5,89.5-74.3,99.6
	c-4.2,0.9-8.5,1-12.6,2.5c-0.9,0-1.9,0-2.8,0c-4.2-1.1-8.5-1.2-12.7,0c-0.9,0-1.9,0-2.8,0c-3.8-1.7-7.9-1.6-11.8-2.6
	c-40-10.8-64.4-36.3-73-76.9c-0.1-0.6-0.4-1.1-0.5-1.7c-1-9.9-1.5-19.9,0.1-29.8c4.1-24.3,15.6-44.5,34.9-59.9
	c17.9-14.3,38.3-21.3,61.2-21C289.2,188.1,294.6,188.9,300,189.5z M272.7,301.9c-1.6-0.3-2.1-1.3-2.8-2
	c-5.9-5.9-11.9-11.7-17.7-17.7c-1.6-1.6-2.6-1.8-4.2,0c-3.9,4.1-7.9,8.1-12,12c-1.7,1.6-1.6,2.7,0,4.3
	c15.3,15.2,30.6,30.5,45.9,45.8c1.4,1.4,2.3,1.8,3.9,0.1c15.3-15.4,30.7-30.8,46.1-46.1c1.5-1.5,1.6-2.5,0-4c-4.2-4-8.2-8-12.2-12.2
	c-1.5-1.6-2.4-1.5-3.9,0c-4.7,4.9-9.6,9.7-14.4,14.5c-1.9,1.9-3.8,3.7-6.2,6c0-2.1,0-3.4,0-4.6c0-24,0-47.9,0.1-71.9
	c0-2.6-0.6-3.5-3.3-3.4c-5,0.2-10.1,0.3-15.1,0c-3.4-0.2-4.3,0.9-4.2,4.3C272.8,251.9,272.7,276.8,272.7,301.9z"/>
<path class="st1" d="M275.5,379.9c4.2-1.2,8.5-1.1,12.7,0C284,379.9,279.8,379.9,275.5,379.9z"/>
<path class="st2" d="M300,189.5c-5.5-0.6-10.9-1.4-16.4-1.5c-22.9-0.2-43.3,6.8-61.2,21c-19.3,15.4-30.8,35.6-34.9,59.9
	c-1.7,9.9-1.2,19.8-0.1,29.8c-31.6,5.4-61.9,1.5-90.2-13.6c-40.9-21.8-66.4-55.6-74-101.4c-8.4-50.3,7-93.4,44.1-128.2
	c21.6-20.2,47.6-31.7,77.1-35.5c67.5-8.7,131.5,32.4,152.2,97.4c7.2,22.7,8.5,45.8,4,69.2C300.3,187.6,300.2,188.6,300,189.5z
	 M137.9,194c3.6-0.4,6.5-0.5,9.4-1.1c22.8-5.2,37.9-18.6,44.4-41.3c0.7-2.3,1.7-3.2,4.1-3.1c5.9,0.2,11.8,0,17.6,0.1
	c2,0,3-0.5,2.9-2.7c-0.1-5.8-0.1-11.5,0-17.3c0-2-0.8-2.6-2.7-2.6c-6.1,0.1-12.2-0.1-18.3,0.1c-2,0-3-0.6-3.4-2.5
	c-1.3-6.3-4.1-12-7.6-17.3c-1.6-2.5-0.7-2.9,1.8-2.9c9.1,0.1,18.1-0.1,27.2,0.1c2.5,0,3.2-0.8,3.2-3.2c-0.2-5.5-0.1-11.1,0-16.6
	c0-2.1-0.6-2.9-2.8-2.8c-35.7,0.1-71.5,0.1-107.2,0c-2.1,0-3,0.5-2.9,2.7c0.1,5.6,0.1,11.3,0,16.9c-0.1,2.4,0.8,3,3.1,2.9
	c10.3-0.1,20.7-0.1,31,0c13.7,0.2,23.5,6.9,30.1,18.6c2,3.6,1.7,4-2.4,4c-19.4,0-38.8,0-58.2,0c-2.6,0-3.8,0.5-3.6,3.5
	c0.2,5.2,0.2,10.4,0,15.5c-0.1,3,0.9,3.7,3.8,3.7c19.4-0.1,38.8-0.1,58.2-0.1c4,0,4.3,0.3,2.4,3.8c-6.5,11.8-16.3,18.5-30,18.7
	c-10.1,0.2-20.2,0.1-30.3,0c-3-0.1-4.2,0.5-4,3.8c0.3,4.9,0.2,9.9,0,14.8c-0.1,2.2,0.6,3.8,2.2,5.2c10.7,9.7,21.3,19.4,32,29.2
	c11.8,10.8,23.5,21.6,35.2,32.4c1.5,1.4,2.4,1.4,3.7-0.1c3-3.4,6.2-6.8,9.3-10.1c4.2-4.4,4.2-4.4-0.4-8.5c-1-0.9-1.8-1.8-2.8-2.7
	c-7.6-7-15.3-13.9-22.9-20.9C152.6,207.7,145.5,201.1,137.9,194z"/>
<path class="st2" d="M272.7,301.9c0-25.2,0.1-50.1-0.1-75c0-3.4,0.8-4.5,4.2-4.3c5,0.3,10.1,0.2,15.1,0c2.7-0.1,3.3,0.8,3.3,3.4
	c-0.1,24-0.1,47.9-0.1,71.9c0,1.3,0,2.5,0,4.6c2.4-2.4,4.3-4.2,6.2-6c4.8-4.8,9.7-9.6,14.4-14.5c1.5-1.5,2.4-1.6,3.9,0
	c4,4.2,8.1,8.2,12.2,12.2c1.6,1.5,1.5,2.5,0,4c-15.4,15.3-30.8,30.7-46.1,46.1c-1.6,1.6-2.5,1.3-3.9-0.1
	c-15.2-15.3-30.5-30.6-45.9-45.8c-1.6-1.6-1.7-2.7,0-4.3c4.1-3.9,8.1-7.9,12-12c1.6-1.7,2.6-1.6,4.2,0c5.8,6,11.8,11.8,17.7,17.7
	C270.6,300.7,271.2,301.7,272.7,301.9z"/>
<path class="st0" d="M137.9,194c7.7,7.1,14.8,13.8,21.9,20.3c7.6,7,15.3,13.9,22.9,20.9c1,0.9,1.8,1.8,2.8,2.7
	c4.7,4.1,4.6,4.1,0.4,8.5c-3.2,3.3-6.3,6.7-9.3,10.1c-1.3,1.5-2.2,1.4-3.7,0.1c-11.7-10.9-23.5-21.6-35.2-32.4
	c-10.6-9.7-21.3-19.5-32-29.2c-1.6-1.5-2.3-3-2.2-5.2c0.2-4.9,0.3-9.9,0-14.8c-0.2-3.3,1-3.9,4-3.8c10.1,0.2,20.2,0.2,30.3,0
	c13.7-0.2,23.5-7,30-18.7c1.9-3.5,1.6-3.8-2.4-3.8c-19.4,0-38.8-0.1-58.2,0.1c-2.9,0-3.9-0.7-3.8-3.7c0.2-5.2,0.2-10.4,0-15.5
	c-0.1-3,1-3.5,3.6-3.5c19.4,0.1,38.8,0.1,58.2,0c4.1,0,4.5-0.4,2.4-4c-6.6-11.7-16.4-18.4-30.1-18.6c-10.3-0.1-20.7-0.1-31,0
	c-2.2,0-3.1-0.6-3.1-2.9c0.2-5.6,0.1-11.3,0-16.9c-0.1-2.3,0.8-2.7,2.9-2.7c35.7,0,71.5,0,107.2,0c2.2,0,2.8,0.7,2.8,2.8
	c-0.1,5.5-0.1,11.1,0,16.6c0.1,2.4-0.7,3.3-3.2,3.2c-9-0.1-18.1,0-27.2-0.1c-2.5,0-3.4,0.4-1.8,2.9c3.5,5.3,6.2,11,7.6,17.3
	c0.4,1.9,1.4,2.6,3.4,2.5c6.1-0.1,12.2,0,18.3-0.1c1.9,0,2.7,0.6,2.7,2.6c-0.1,5.8-0.1,11.5,0,17.3c0.1,2.3-0.9,2.8-2.9,2.7
	c-5.9-0.1-11.8,0.1-17.6-0.1c-2.5-0.1-3.5,0.8-4.1,3.1c-6.5,22.7-21.7,36.1-44.4,41.3C144.4,193.5,141.5,193.5,137.9,194z"/>
</svg>
