<?xml version="1.0" encoding="utf-8"?>
<!-- Generator: Adobe Illustrator 26.0.1, SVG Export Plug-In . SVG Version: 6.00 Build 0)  -->
<svg version="1.1" id="Layer_1" xmlns="http://www.w3.org/2000/svg" xmlns:xlink="http://www.w3.org/1999/xlink" x="0px" y="0px"
	 viewBox="0 0 99.6 100" style="enable-background:new 0 0 99.6 100;" xml:space="preserve">
<style type="text/css">
	.st0{fill:#FFFFFF;}
	.st1{fill:#D22CFF;}
	.st2{fill:#1EE3FF;}
	.st3{fill:#D8D8E4;}
</style>
<path class="st0" d="M55,13.8h14.2c4.4,0,7.9,3.5,7.9,7.9v68.9c0,4.4-3.5,7.9-7.9,7.9H9c-4.4,0-7.9-3.5-7.9-7.9V19.7
	c0-4.4,3.6-5.9,7.9-5.9H55z"/>
<path class="st1" d="M98.5,36.6v59.2c0,1.5-1.2,2.8-2.8,2.8h-7.2c-1.5,0-2.8-1.2-2.8-2.8V36.6H98.5z"/>
<path class="st2" d="M85.9,89.3v6.4c0,1.5,1.2,2.8,2.8,2.8l0,0h7.2c1.5,0,2.8-1.2,2.8-2.8l0,0v-6.4H85.9z"/>
<path class="st3" d="M92.2,22.5l6.3,14.2H85.9L92.2,22.5z"/>
<path class="st1" d="M22.4,42.3c-3.5,0-6.3-2.8-6.3-6.3s2.8-6.3,6.3-6.3s6.3,2.8,6.3,6.3l0,0C28.7,39.4,25.9,42.3,22.4,42.3z"/>
<path class="st1" d="M22.4,66c-3.5,0-6.3-2.8-6.3-6.3s2.8-6.3,6.3-6.3s6.3,2.8,6.3,6.3l0,0C28.7,63.2,25.9,66,22.4,66z"/>
<path class="st1" d="M22.4,89.8c-3.5,0-6.3-2.8-6.3-6.3c0-3.5,2.8-6.3,6.3-6.3s6.3,2.8,6.3,6.3C28.7,87,25.9,89.8,22.4,89.8z"/>
<path d="M22.4,43.3c-4.1,0-7.4-3.3-7.4-7.4s3.3-7.4,7.4-7.4s7.4,3.3,7.4,7.4S26.5,43.3,22.4,43.3L22.4,43.3z M22.4,30.7
	c-2.9,0-5.3,2.4-5.3,5.3s2.4,5.3,5.3,5.3s5.3-2.4,5.3-5.3C27.7,33,25.3,30.7,22.4,30.7z"/>
<path d="M22.4,67.1c-4.1,0-7.4-3.3-7.4-7.4s3.3-7.4,7.4-7.4s7.4,3.3,7.4,7.4S26.5,67.1,22.4,67.1L22.4,67.1z M22.4,54.4
	c-2.9,0-5.3,2.4-5.3,5.3s2.4,5.3,5.3,5.3s5.3-2.4,5.3-5.3C27.7,56.8,25.3,54.4,22.4,54.4z"/>
<path d="M22.4,90.9c-4.1,0-7.4-3.3-7.4-7.4c0-4.1,3.3-7.4,7.4-7.4s7.4,3.3,7.4,7.4S26.5,90.9,22.4,90.9
	C22.4,90.9,22.4,90.9,22.4,90.9z M22.4,78.2c-2.9,0-5.3,2.4-5.3,5.3c0,2.9,2.4,5.3,5.3,5.3s5.3-2.4,5.3-5.3l0,0
	C27.7,80.6,25.3,78.2,22.4,78.2z"/>
<path d="M62.2,40.3H39.4c-1.1,0-2,0.9-2,2s0.9,2,2,2h22.7c1.1,0,2-0.9,2-2S63.3,40.3,62.2,40.3z"/>
<path d="M62.2,30.8H39.4c-1.1,0-2,0.9-2,2c0,1.1,0.9,2,2,2h22.7c1.1,0,2-0.9,2-2C64.2,31.7,63.3,30.8,62.2,30.8z"/>
<path d="M62.2,64.1H39.4c-1.1,0-2,0.9-2,2s0.9,2,2,2h22.7c1.1,0,2-0.9,2-2S63.3,64.1,62.2,64.1z"/>
<path d="M62.2,54.6H39.4c-1.1,0-2,0.9-2,2s0.9,2,2,2h22.7c1.1,0,2-0.9,2-2S63.3,54.6,62.2,54.6z"/>
<path d="M62.2,87.8H39.4c-1.1,0-2,0.9-2,2s0.9,2,2,2h22.7c1.1,0,2-0.9,2-2S63.3,87.8,62.2,87.8z"/>
<path d="M62.2,78.3H39.4c-1.1,0-2,0.9-2,2s0.9,2,2,2h22.7c1.1,0,2-0.9,2-2S63.3,78.3,62.2,78.3z"/>
<path d="M69.2,100H9c-5,0-9-4-9-9V36.6c-0.1-0.6,0.4-1.1,1-1.2s1.1,0.4,1.2,1c0,0.1,0,0.1,0,0.2V91c0,3.8,3.1,6.9,6.8,6.9
	c0,0,0,0,0,0h60.2c3.8,0,6.9-3.1,6.8-6.9c0,0,0,0,0,0V22.1c0-3.8-3.1-6.9-6.9-6.9l0,0H9c-4.6,0-6.9,1.6-6.9,4.9v9.5
	c0.1,0.6-0.4,1.1-1,1.2s-1.1-0.4-1.2-1c0-0.1,0-0.1,0-0.2v-9.5c0-4.5,3.3-7,9-7h60.2c5,0,9,4,9,9V91C78.2,96,74.2,100,69.2,100z"/>
<path class="st2" d="M47.7,7.5c-1-3.8-4.5-6.4-8.4-6.4h-0.4c-3.9,0-7.4,2.6-8.4,6.4h-5.1c-2.1,0-3.8,1.7-3.8,3.8l0,0v7.2h34.9v-7.2
	c0-2.1-1.7-3.8-3.8-3.8c0,0,0,0,0,0H47.7z"/>
<path d="M57.6,19.6h-37v-8.3c0-2.7,2.2-4.8,4.8-4.8h4.3C31.1,2.6,34.8,0,38.9,0h0.4c4.1,0,7.8,2.6,9.2,6.4h4.3
	c2.7,0,4.8,2.2,4.8,4.8V19.6z M22.7,17.4h32.7v-6.2c0-1.5-1.2-2.7-2.7-2.7h-5.9l-0.2-0.8c-0.9-3.3-3.9-5.6-7.4-5.6h-0.4
	c-3.4,0-6.5,2.3-7.4,5.6l-0.2,0.8h-5.9c-1.5,0-2.7,1.2-2.7,2.7V17.4z"/>
<path d="M95.8,99.6h-7.2c-1,0-1.9-0.4-2.6-1.1l-0.1-0.1l0,0c-0.7-0.7-1.1-1.7-1.1-2.7V36.6c0-0.2,0-0.3,0.1-0.4L91.2,22
	c0.2-0.5,0.9-0.8,1.4-0.5c0.2,0.1,0.4,0.3,0.5,0.5l6.3,14.2c0.1,0.1,0.1,0.3,0.1,0.4v46.5c-0.1,0.6-0.6,1-1.2,1c-0.5,0-0.9-0.5-1-1
	V36.9l-5.3-11.8l-5.3,11.8v58.9c0,0.5,0.2,0.9,0.5,1.2l0,0l0,0c0.3,0.3,0.7,0.5,1.2,0.5H96h0.1l0,0h0.1l0,0h0.1h0.1l0,0h0.1h0.1
	l0.1-0.1l0,0c0.5-0.3,0.7-0.8,0.7-1.4v-7.5c0.1-0.6,0.6-1,1.2-1c0.5,0,0.9,0.5,1,1v7.2c0,1.2-0.5,2.4-1.5,3.1l0,0L97.8,99l0,0
	l-0.1,0.1h-0.1l-0.2,0.1l0,0l-0.3,0.1H97l0,0l-0.2,0.1h-0.1h-0.3L95.8,99.6z M96.5,99.5L96.5,99.5z M85.9,98.4L85.9,98.4z
	 M96.1,97.4L96.1,97.4z"/>
<path d="M94.2,37.1h-8.4c-0.4,0-0.7-0.4-0.7-0.8c0-0.3,0.3-0.6,0.7-0.7h8.4c0.4,0,0.7,0.4,0.7,0.8C94.9,36.8,94.6,37.1,94.2,37.1z"
	/>
<path d="M95.2,90.1h-8.4c-0.4,0-0.8-0.2-0.8-0.7s0.2-0.8,0.7-0.8c0.1,0,0.1,0,0.2,0h8.4c0.4,0,0.7,0.4,0.7,0.8
	C95.8,89.8,95.5,90,95.2,90.1L95.2,90.1z"/>
</svg>
