<?xml version="1.0" encoding="utf-8"?>
<!-- Generator: Adobe Illustrator 26.0.1, SVG Export Plug-In . SVG Version: 6.00 Build 0)  -->
<svg version="1.1" id="Layer_1" xmlns="http://www.w3.org/2000/svg" xmlns:xlink="http://www.w3.org/1999/xlink" x="0px" y="0px"
	 viewBox="0 0 138 68" style="enable-background:new 0 0 138 68;" xml:space="preserve">
<style type="text/css">
	.st0{fill:url(#SVGID_1_);}
	.st1{fill:url(#SVGID_00000132055226693048861640000005205907868346984618_);}
	.st2{fill:url(#SVGID_00000172413411462999307150000006543131783357567933_);}
	.st3{fill:url(#SVGID_00000044876721594398495850000003911624228668029333_);}
	.st4{fill:url(#SVGID_00000174560986359908561000000003125295277540062383_);}
	.st5{fill:#FFFFFF;}
	.st6{fill:#DB25E5;}
</style>
<linearGradient id="SVGID_1_" gradientUnits="userSpaceOnUse" x1="19.7973" y1="17.5627" x2="47.1788" y2="17.5627">
	<stop  offset="1.221455e-07" style="stop-color:#00FFFF"/>
	<stop  offset="1" style="stop-color:#FF00FF"/>
</linearGradient>
<polygon class="st0" points="19.8,5.9 33.5,29.3 47.2,5.9 "/>
<linearGradient id="SVGID_00000142895407327011399890000010061499207930889863_" gradientUnits="userSpaceOnUse" x1="1.0447" y1="32.5329" x2="102.2651" y2="32.5329">
	<stop  offset="1.221455e-07" style="stop-color:#00FFFF"/>
	<stop  offset="1" style="stop-color:#FF00FF"/>
</linearGradient>
<path style="fill:url(#SVGID_00000142895407327011399890000010061499207930889863_);" d="M100.3,9.8c-0.8,0-1.5,0.5-1.8,1.2
	l-15.8,0.1c-0.8,0-1.6-0.5-1.8-1.4c-0.1-0.3-0.1-0.7,0.2-1.1C81.3,8.2,81.8,8,82.4,8h9.5c0.4,0.5,0.9,0.8,1.6,0.8c1.1,0,2-0.9,2-2
	c0-1.1-0.9-2-2-2c-0.8,0-1.4,0.4-1.7,1.1L52.6,6.1l-20,34.7L12.2,5.9H1l31.4,54.4l24.7-42L89.9,18c0.3,0.6,1,1,1.7,1
	c1.1,0,2-0.9,2-2c0-1.1-0.9-2-2-2c-0.8,0-1.4,0.4-1.7,1l-7.6,0c-0.7,0-1.4-0.4-1.7-1c-0.2-0.4-0.3-0.9,0-1.3
	c0.3-0.5,0.9-0.8,1.5-0.8h16.5c0.4,0.5,0.9,0.8,1.6,0.8c1.1,0,2-0.9,2-2C102.3,10.7,101.4,9.8,100.3,9.8z M92.8,6.2
	c0.2-0.2,0.4-0.3,0.7-0.3c0.5,0,0.9,0.4,0.9,0.9c0,0.5-0.4,0.9-0.9,0.9c-0.3,0-0.5-0.1-0.7-0.3c-0.2-0.2-0.3-0.4-0.3-0.6
	C92.5,6.6,92.6,6.4,92.8,6.2z M92.5,17c0,0.5-0.4,0.9-0.9,0.9c-0.3,0-0.5-0.1-0.7-0.3c-0.2-0.2-0.3-0.4-0.3-0.6s0.1-0.5,0.3-0.6
	c0.2-0.2,0.4-0.3,0.7-0.3C92.1,16.1,92.5,16.5,92.5,17z M100.3,12.7c-0.1,0-0.3,0-0.4-0.1c-0.3-0.1-0.5-0.5-0.5-0.8
	c0-0.3,0.2-0.6,0.5-0.8c0.1-0.1,0.3-0.1,0.5-0.1c0.5,0,0.9,0.4,0.9,0.9C101.2,12.3,100.8,12.7,100.3,12.7z"/>
<linearGradient id="SVGID_00000073001151292208005400000007770857711097132170_" gradientUnits="userSpaceOnUse" x1="90.7103" y1="17.038" x2="90.9725" y2="17.038">
	<stop  offset="1.221455e-07" style="stop-color:#00FFFF"/>
	<stop  offset="1" style="stop-color:#FF00FF"/>
</linearGradient>
<path style="fill:url(#SVGID_00000073001151292208005400000007770857711097132170_);" d="M91,16.4v1.3c-0.2-0.2-0.3-0.4-0.3-0.6
	S90.8,16.6,91,16.4z"/>
<linearGradient id="SVGID_00000094613160305102394430000007162415254400937638_" gradientUnits="userSpaceOnUse" x1="92.5477" y1="6.8081" x2="92.798" y2="6.8081">
	<stop  offset="1.221455e-07" style="stop-color:#00FFFF"/>
	<stop  offset="1" style="stop-color:#FF00FF"/>
</linearGradient>
<path style="fill:url(#SVGID_00000094613160305102394430000007162415254400937638_);" d="M92.8,7.4c-0.2-0.2-0.3-0.4-0.3-0.6
	c0-0.2,0.1-0.4,0.2-0.6L92.8,7.4z"/>
<linearGradient id="SVGID_00000070093865789919888650000007150366729164080573_" gradientUnits="userSpaceOnUse" x1="99.3769" y1="11.8009" x2="99.9013" y2="11.8009">
	<stop  offset="1.221455e-07" style="stop-color:#00FFFF"/>
	<stop  offset="1" style="stop-color:#FF00FF"/>
</linearGradient>
<path style="fill:url(#SVGID_00000070093865789919888650000007150366729164080573_);" d="M99.9,11v1.6c-0.3-0.1-0.5-0.5-0.5-0.8
	C99.4,11.4,99.6,11.1,99.9,11L99.9,11z"/>
<path d="M94.4,6.8c0,0.5-0.4,0.9-0.9,0.9c-0.3,0-0.5-0.1-0.7-0.3c-0.2-0.2-0.3-0.4-0.3-0.6c0-0.2,0.1-0.4,0.2-0.6
	c0.2-0.2,0.4-0.3,0.7-0.3C94,5.9,94.4,6.3,94.4,6.8z"/>
<path d="M101.2,11.8c0,0.5-0.4,0.9-0.9,0.9c-0.1,0-0.3,0-0.4-0.1c-0.3-0.1-0.5-0.5-0.5-0.8c0-0.3,0.2-0.6,0.5-0.8
	c0.1-0.1,0.3-0.1,0.5-0.1C100.8,10.9,101.2,11.3,101.2,11.8z"/>
<path d="M92.5,17c0,0.5-0.4,0.9-0.9,0.9c-0.3,0-0.5-0.1-0.7-0.3c-0.2-0.2-0.3-0.4-0.3-0.6s0.1-0.5,0.3-0.6c0.2-0.2,0.4-0.3,0.7-0.3
	C92.1,16.1,92.5,16.5,92.5,17z"/>
<path class="st5" d="M94.4,6.8c0,0.5-0.4,0.9-0.9,0.9c-0.3,0-0.5-0.1-0.7-0.3c-0.2-0.2-0.3-0.4-0.3-0.6c0-0.2,0.1-0.4,0.2-0.6
	c0.2-0.2,0.4-0.3,0.7-0.3C94,5.9,94.4,6.3,94.4,6.8z"/>
<path class="st5" d="M101.2,11.8c0,0.5-0.4,0.9-0.9,0.9c-0.1,0-0.3,0-0.4-0.1c-0.3-0.1-0.5-0.5-0.5-0.8c0-0.3,0.2-0.6,0.5-0.8
	c0.1-0.1,0.3-0.1,0.5-0.1C100.8,10.9,101.2,11.3,101.2,11.8z"/>
<path class="st5" d="M92.5,17c0,0.5-0.4,0.9-0.9,0.9c-0.3,0-0.5-0.1-0.7-0.3c-0.2-0.2-0.3-0.4-0.3-0.6s0.1-0.5,0.3-0.6
	c0.2-0.2,0.4-0.3,0.7-0.3C92.1,16.1,92.5,16.5,92.5,17z"/>
<g>
	<path class="st6" d="M75.2,25l-7.4,18.3h-3.3L57.1,25h3.7l5.4,13.3L71.5,25H75.2z"/>
	<path class="st6" d="M83.9,38.4c4.4,0,5,2,1.3,4.4c-1,0.6-2.3,0.9-3.9,0.9c-4.2,0-6.8-3.2-6.8-7.4c0-5.1,3.5-7.2,6.7-7.5
		c3.8-0.3,5.9,1.6,5.9,4.3c0,1.5-0.4,2.8-2.5,3.7l-5.9,2.5c0,0,0,0,0,0c0.6,0.9,1.5,1.4,2.5,1.4C82.7,40.6,83.9,40,83.9,38.4
		C83.9,38.4,83.9,38.4,83.9,38.4L83.9,38.4z M77.9,36.2c0,0.3,0.3,0.5,0.6,0.4l4.3-1.9c0.5-0.2,1-0.5,1-1.2c0-1.1-1.1-1.9-2.4-1.9
		C79.8,31.7,77.9,33,77.9,36.2L77.9,36.2z"/>
	<path class="st6" d="M99.4,29.2v3.1h-4c-1.8,0-2.3,0.7-2.3,2.3v8.7h-3.3v-4.5C89.8,33.5,94.1,29.2,99.4,29.2L99.4,29.2z"/>
	<path class="st6" d="M112.1,39.2c0,3.1-2.2,4.5-5.7,4.5c-1.4,0-2.8-0.4-3.8-1.2c-1.5-1.2-0.7-3.7,1.3-3.7h0c0,1.5,1.5,2.1,2.8,2.1
		c1.2,0,2.2-0.5,2.2-1.3c0-2.7-8-0.7-8-6.4c0-3.1,2.5-4.5,5.4-4.5c1.6,0,2.9,0.4,3.8,1c1.6,1.2,0.7,3.8-1.3,3.8l0,0
		c0-1.3-1.4-1.9-2.7-1.9c-1.1,0-2.2,0.5-2.2,1.4C104,35.9,112.1,33.6,112.1,39.2z"/>
	<path class="st6" d="M128.9,36.2V40c0,1.8-1.5,3.3-3.3,3.3l0,0v0c0-0.7-0.8-1.1-1.4-0.7c-0.8,0.7-1.9,1.1-3.1,1.1
		c-4.1,0-6.9-3-6.9-7.5c0-4.2,2.8-7.4,7.3-7.4C125.9,28.7,128.9,31.8,128.9,36.2z M125.6,36.2c0-2.5-1.7-4.2-4.2-4.2
		c-2.7,0-3.9,2.1-3.9,4.2c0,2.1,1.2,4.2,3.9,4.2C123.9,40.4,125.6,38.4,125.6,36.2z"/>
	<rect x="131.7" y="29.2" class="st6" width="3.3" height="14.1"/>
	<path class="st6" d="M133.3,27.3c1.2,0,2.1,2.2,1.8,1c-0.2-0.9-1-1.6-1.9-1.5c-1,0-1.8,0.9-1.8,1.9
		C131.5,29.7,132.3,27.3,133.3,27.3z M133.3,27.2c1.9,0,1.9-0.3,0-0.3C131.5,26.8,131.5,27.2,133.3,27.2z"/>
</g>
<g>
	<path class="st6" d="M64.8,45.2V47H62v6.3c0,1-0.8,1.8-1.8,1.8l0,0V47h-2.9v-1.8H64.8z"/>
	<path class="st6" d="M69.4,52.4c1.3,0,1.8,1.7,0.7,2.4c-0.5,0.3-1.2,0.5-2.1,0.5c-2.3,0-3.7-1.7-3.7-4c0-2.7,1.9-3.9,3.6-4
		c2-0.1,3.2,0.9,3.2,2.3c0,0.8-0.2,1.5-1.4,2l-3.2,1.4c0.3,0.5,0.8,0.8,1.4,0.8C68.8,53.6,69.4,53.3,69.4,52.4L69.4,52.4z
		 M66.2,51.6l2.6-1.1c0.3-0.1,0.5-0.3,0.5-0.6c0-0.6-0.6-1-1.3-1c-0.9,0-1.9,0.7-1.9,2.4C66.2,51.4,66.2,51.5,66.2,51.6z"/>
	<path class="st6" d="M77.5,52.3L77.5,52.3c1.2,0,1.8,1.5,0.8,2.3c-0.6,0.4-1.3,0.7-2.2,0.7c-2.3,0-3.7-1.7-3.7-4c0-2.3,1.3-4,3.7-4
		c0.9,0,1.7,0.2,2.2,0.7c1,0.7,0.4,2.3-0.8,2.3l0,0c0-0.9-0.6-1.2-1.5-1.2c-1.1,0-1.8,0.7-1.8,2.3c0,1.5,0.7,2.3,1.8,2.3
		C76.9,53.5,77.5,53.2,77.5,52.3z"/>
	<path class="st6" d="M88.2,50.4v2.9c0,1-0.8,1.8-1.8,1.8l0,0v-4.4c0-1.2-0.9-1.9-1.8-1.9c-1,0-2,0.8-2,2.3v3.9h-1.8V44.4h1.8V49
		c0.6-1.1,1.6-1.8,2.7-1.8C86.8,47.2,88.2,48.3,88.2,50.4z"/>
	<path class="st6" d="M97.1,50.4v4.7h-1.8v-4.4c0-1.2-0.9-1.9-1.8-1.9c-1,0-2,0.9-2,2.4v3.9h-1.8v-7.6h1.8V49
		c0.6-1.1,1.6-1.8,2.7-1.8C95.7,47.2,97.1,48.3,97.1,50.4z"/>
	<path class="st6" d="M106.4,51.3c0,2.2-1.7,4-4,4c-2.3,0-4-1.8-4-4c0-2.2,1.7-4,4-4C104.7,47.2,106.4,49,106.4,51.3z M104.6,51.3
		c0-1.2-0.8-2.4-2.2-2.4c-1.4,0-2.2,1.1-2.2,2.4c0,1.2,0.8,2.4,2.2,2.4C103.9,53.6,104.6,52.5,104.6,51.3z"/>
	<path class="st6" d="M107.8,55.1V44.4h1.8v10.7H107.8z"/>
	<path class="st6" d="M118.9,51.3c0,2.2-1.7,4-4,4c-2.3,0-4-1.8-4-4c0-2.2,1.7-4,4-4C117.2,47.2,118.9,49,118.9,51.3z M117.1,51.3
		c0-1.2-0.8-2.4-2.2-2.4c-1.4,0-2.2,1.1-2.2,2.4c0,1.2,0.8,2.4,2.2,2.4C116.3,53.6,117.1,52.5,117.1,51.3z"/>
	<path class="st6" d="M125.5,56c-0.6,0.5-1.4,0.9-2.2,0.9c-1.1,0-2-0.6-2-1.5c0-1.1,1.4-1.2,2.2-1.2c2,0,3.5-1.6,3.5-3.5
		c0-1.9-1.5-3.5-3.5-3.5c-2,0-3.5,1.6-3.5,3.5c0,1.2,0.6,2.3,1.6,2.9c-1.1,0.3-1.8,1.1-1.8,2.2c0,1.8,1.7,2.7,3.3,2.7
		c2.3,0,3.5-1.1,4.3-2.7l0,0C126.8,55.5,126,55.5,125.5,56z M123.5,48.9c1.1,0,1.7,0.9,1.7,1.8s-0.6,1.8-1.7,1.8
		c-1.1,0-1.8-0.9-1.8-1.8S122.4,48.9,123.5,48.9z"/>
	<path class="st6" d="M134.2,47.5h1.8l-2.5,9c-0.4,1.5-1.4,2.2-2.9,2.2c-0.6,0-1.3-0.2-2-0.4l0,0c0.1-0.8,0.9-1.4,1.7-1.4
		c0,0,0,0,0.1,0c1,0,1.3-0.4,1.5-1l0.2-0.7h-0.7c-1.3,0-2.1-0.8-2.3-1.8l-1.3-5.9h1.8l1.1,5c0.1,0.6,0.6,1,1.1,1h0.7L134.2,47.5z"/>
</g>
</svg>
